<?xml version="1.0" standalone="yes"?>
<svg xmlns="http://www.w3.org/2000/svg" width="594" height="594">
<path style="fill:#fcfbfa; stroke:none;" d="M0 0L0 594L594 594L594 0L0 0z"/>
<path style="fill:#eed85f; stroke:none;" d="M205 114L201 112C195.306 110.961 190.516 105.323 186 101.884C174.352 93.0148 133.809 64.5384 128.927 94C128.356 97.448 128.654 100.549 128.915 104C129.394 110.338 130.196 116.69 131 123C125.41 121.623 119.712 120.531 114 119.845C95.8427 117.665 84.908 125.895 90.7739 145C96.5262 163.735 110.699 177.31 120 194C100.722 198.59 79.949 190.021 60 194.9C49.2288 197.534 40.8687 205.37 45.4792 217C49.1443 226.246 57.5271 232.332 62 241C52.6306 244.143 37.0277 248.446 32.3179 258.004C28.1948 266.371 33.7457 274.909 40.0394 280.192C53.1229 291.175 74.0757 301.992 91 305C87.9666 312.646 79.7589 314.266 73 317.784C61.2898 323.879 48.8652 330.802 40.213 341C30.6681 352.25 34.8455 364.17 48 369.546C67.3466 377.454 88.2493 373.134 108 378C95.7344 393.062 80.0527 405.878 72.0394 424C68.5636 431.86 66.5419 442.543 75.0185 448.005C84.441 454.078 98.3765 450.028 109 452C106.143 462.067 99.3501 478.052 105.894 487.956C110.794 495.373 120.528 494.247 128 492.575C145.722 488.609 165.656 478.016 180 467C182.936 486.384 172.218 506.793 175.131 527C176.947 539.596 184.633 548.383 198 543.441C201.611 542.105 204.853 539.827 208 537.652C213.249 534.024 217.603 529.533 222.039 524.985C230.279 516.536 236.575 506.182 246 499C250.031 517.734 251.195 539.043 260.879 556C269.999 571.969 284.69 570.374 294.652 556C297.544 551.828 300.861 547.596 303 543L304 543C310.764 550.403 316.695 561.132 326 565.558C336.094 570.36 344.367 562.676 348.508 554C356.807 536.61 357.831 515.718 361 497C366.255 500.046 369.811 504.431 373.729 509C383.375 520.248 395.076 532.314 409 538.123C418.521 542.096 428.288 539.49 431.556 529C432.582 525.707 432.919 522.429 433 519C433.125 513.673 434.526 508.282 434 503C445.962 502.421 456.496 512.288 468.999 508.347C478.353 505.399 478.833 494.145 477.561 486C474.518 466.517 463.28 450.6 458 432C477.576 435.533 495.794 442.244 516 441.996C528.85 441.838 537.69 434.403 534.239 421C528.463 398.565 504.646 388.364 495 369C513.175 367.554 534.001 366.792 551 359.572C559.26 356.063 567.887 350.217 565.606 340C562.999 328.32 549.776 322.82 543 314C552.578 308.875 569.347 300.464 569.852 288C570.163 280.311 563.049 274.608 557 271.174C542.532 262.96 517.663 254.798 501 255L501 254L504 253C505.491 248.214 512.098 245.054 516 242.127C524.87 235.471 533.459 228.461 540.7 220C543.325 216.933 545.797 213.584 547.672 210C554.221 197.479 546.567 187.776 534 185.015C513.602 180.534 492.984 189.71 473 186C484.802 172.153 496.206 153.716 500.844 136C502.778 128.613 503.646 117.577 495.957 113.14C485.451 107.077 470.051 113.848 459 115C460.548 109.766 460.931 103.477 460.996 98C461.043 94.0702 461.362 89.8545 460.471 86C458.256 76.4241 449.926 73.3888 441 75.2902C427.072 78.2571 414.604 88.3082 404 97.2747C399.241 101.299 394.437 107.345 388 108L389 111C383.872 107.679 386 98.4277 386 93C386.001 78.0529 386.29 61.9667 380.123 48C376.485 39.7589 369.059 34.1394 360 37.7654C350.032 41.7554 345.038 52.6683 335 56C332.999 50.5007 330.03 44.9756 326.934 40C325.208 37.2255 323.329 34.4337 320.907 32.2137C313.246 25.1943 304.555 28.3223 298.043 35.0154C288.361 44.9672 284.273 59.1767 280 72C278.838 75.4879 276.564 89.9444 271.907 89.9444C267.19 89.9444 262.864 79.4022 260.797 76C253.436 63.8815 244.434 50.3307 232 42.9305C220.642 36.1709 210.604 42.2623 206.749 54C201.329 70.5068 200.201 97.2404 205 114z"/>
<path style="fill:#f5cf02; stroke:none;" d="M274 103L273 103C264.602 84.5194 253.431 62.8513 237.985 49.3002C231.173 43.3236 220.948 36.9977 213.213 45.1088C207.672 50.9186 206.648 59.4047 205.834 67C203.792 86.0586 207.988 104.101 208 123C190.361 110.721 176.467 93.719 156 85.4529C147.187 81.8935 134.792 79.5503 130.92 91.0008C126.765 103.289 134.014 115.933 135 128C129.602 125.607 123.753 123.598 118 122.236C114.17 121.329 109.952 120.167 106 120.18C93.3365 120.221 88.1552 129.554 91.1559 141C95.4407 157.345 106.44 171.997 116.801 185C120.634 189.81 125.412 194.417 128 200C106.818 198.314 86.4287 192.065 65 195.439C44.0076 198.745 41.6687 212.867 54.439 228C58.8056 233.174 64.1782 237.278 69 242C57.7891 246.117 39.5544 247.009 33.3179 259.004C28.659 267.964 37.4391 276.508 44.0039 281.36C60.3204 293.418 82.3153 301.487 102 306C87.7246 317.523 67.2822 321.765 52 332.71C45.5092 337.358 37.4835 343.519 36.2145 352C34.5874 362.874 45.3621 367.399 54 369.964C74.9211 376.175 96.1985 370.568 117 374C101.973 389.017 84.8115 402.813 74.7847 422C70.4739 430.249 66.3514 442.3 77.0039 447.686C88.6025 453.551 102.067 447.514 114 447C111.751 454.867 107.705 461.942 105.888 470C102.124 486.697 111.717 494.997 128 491.101C150.216 485.786 166.187 469.856 186 460C182.763 481.998 174.421 502.248 176.09 525C176.902 536.061 183.636 546.968 196 542.613C212 536.977 224.298 521.075 234.105 508C238.511 502.125 242.424 493.544 249 490C249.164 509.797 252.001 532.86 260.309 551C263.854 558.742 269.831 569.247 280 566.361C294.607 562.216 295.518 544.226 306 536C310.802 552.638 332.988 580.224 346.215 555C357.208 534.036 355.136 509.659 358 487C375.078 500.902 384.484 521.857 404 533.934C421.849 544.98 431.866 533.352 431.995 515C432.04 508.632 430.796 502.3 430 496C442.377 498.839 453.14 510.791 467 507.606C477.929 505.094 477.137 492.582 475.576 484C471.648 462.409 459.07 445.403 450 426C471.426 428.147 490.625 441.265 513 440.981C535.324 440.699 537.448 424.114 526.087 408C522.396 402.764 518.276 397.688 513.911 393C505.091 383.528 492.594 376.317 485 366C506.017 362.258 527.251 366.439 548 359.135C556.472 356.153 567.746 349.725 563.866 339C559.064 325.727 543.91 323.081 536 313C552.132 308.588 583.255 290.333 558.999 274.105C540.56 261.769 513.597 258.704 492 257C499.963 246.828 515.001 241.04 525 232.715C530.116 228.455 535.291 224.155 539.536 219C541.854 216.186 544.21 213.204 545.965 210C552.143 198.717 547.242 189.427 535 186.665C519.07 183.071 500.814 185.413 485 188.885C478.839 190.238 472.325 192.654 466 192C476.749 173.315 492.645 158.285 498.964 137C501.657 127.93 502.654 115.366 491 112.533C478.608 109.521 466.785 118.235 455 120C456.459 113.637 458.226 107.49 459.13 101C461.8 81.8404 451.987 71.0468 433 79.5146C413.577 88.1772 397.769 105.231 383 120C381.456 112.899 383.419 105.18 383.91 98C384.862 84.1047 384.861 68.4604 380.961 55C378.27 45.7145 372.484 34.845 361 38.9699C348.422 43.4879 344.73 57.9018 334 64C332.115 45.0842 314.645 15.5281 296.529 39C282.439 57.2559 280.716 81.8215 274 103z"/>
<path style="fill:#967102; stroke:none;" d="M297 217L297 218L301 218L297 217M281 219L281 220L294 219L281 219z"/>
<path style="fill:#543705; stroke:none;" d="M294 218.424C278.779 220.423 264.703 223.953 252 233.158C210.733 263.063 206.762 326.064 246 359.7C264.374 375.45 288.434 380.95 312 377.841C320.71 376.692 329.224 373.19 337 369.244C399.247 337.656 388.134 242.187 323 222.025C314.091 219.268 303.308 217.202 294 218.424z"/>
<path style="fill:#967102; stroke:none;" d="M303 218L303 219L311 219L303 218M312 219L312 220L316 220L312 219M276 220L276 221L280 221L276 220M317 220L317 221L320 221L317 220M273 221L273 222L276 222L273 221M321 221L321 222L324 222L321 221M268 223L268 224L273 223L268 223M324 222L324 223L327 223L324 222M327.667 223.333L328.333 223.667L327.667 223.333M266.667 224.333L267.333 224.667L266.667 224.333M330.667 224.333L331.333 224.667L330.667 224.333M258 228L258 229L266 226L258 228M332.667 225.333L333.333 225.667L332.667 225.333M334.667 226.333L335.333 226.667L334.667 226.333M336.667 227.333L337.333 227.667L336.667 227.333M338.667 228.333L339.333 228.667L338.667 228.333M256.667 229.333L257.333 229.667L256.667 229.333M340 229L343 231L340 229M253 232L256 230L253 232M343 231L346 233L343 231M252 232L253 233L252 232M249 235L252 233L249 235M346 233L347 234L346 233M347 234L351 237L347 234M248 235L249 236L248 235M244 239L248 236L244 239M351 237L352 238L351 237M352 238L353 239L352 238M243 239L244 240L243 239M353 239L354 240L353 239M242 240L243 241L242 240M354 240L355 241L354 240M241 241L242 242L241 241M355 241L356 242L355 241M240 242L241 243L240 242M356 242L357 243L356 242M239 243L240 244L239 243M357 243L358 244L357 243M238 244L234 250L238 244M358 244L359 245L358 244M359 245L360 246L359 245M360 246L363 250L360 246M233.333 250.667L233.667 251.333L233.333 250.667M363 250L364 251L363 250M364 251L366 254L364 251M232 252L233 253L232 252M231.333 253.667L231.667 254.333L231.333 253.667M366 254L368 259L369 259L366 254M230 255L231 256L230 255M229.333 256.667L229.667 257.333L229.333 256.667M228.333 258.667L228.667 259.333L228.333 258.667M369.333 259.667L369.667 260.333L369.333 259.667M227.333 260.667L227.667 261.333L227.333 260.667M370 261L371 265L372 265L370 261M226.333 262.667L226.667 263.333L226.333 262.667M225.333 264.667L225.667 265.333L225.333 264.667M372 265L374 272L375 272L372 265M224.333 266.667L224.667 267.333L224.333 266.667M223 268L223 271L224 271L223 268M222.333 271.667L222.667 272.333L222.333 271.667M375 272L378.961 296L376 322L377 322C379.924 306.921 383.773 285.962 375 272M221 274L221 277L222 277L221 274M220 277L220 280L221 280L220 277M219 281L219 285L220 285L219 281M218 286L218 294L219 294L218 286M217 297L217 301L218 301L217 297M218 304L218 312L219 312L218 304M219 312L219 317L220 317L219 312M220 317L220 321L221 321L220 317M221 321L221 324L222 324L221 321M375 322L374 328L375 328L375 322M222 324L222 327L223 327L222 324M223 327L223 330L224 330L223 327M373 328L370 337L371 337L373 328M224.333 330.667L224.667 331.333L224.333 330.667M225.333 332.667L225.667 333.333L225.333 332.667M226.333 334.667L226.667 335.333L226.333 334.667M227.333 336.667L227.667 337.333L227.333 336.667M369 337L368 340L369 337M228 338L230 341L228 338M367.333 340.667L367.667 341.333L367.333 340.667M230.333 341.667L230.667 342.333L230.333 341.667M366 342L365 345L366 342M231 343L232 344L231 343M232.333 344.667L232.667 345.333L232.333 344.667M364 345L365 346L364 345M233 346L234 347L233 346M363 346L362 349L363 346M234 347L238 352L234 347M361 349L362 350L361 349M360 350L361 351L360 350M359 351L351 360C354.689 358.278 359.093 355.398 359 351M238 352L239 353L238 352M239 353L240 354L239 353M240 354L241 355L240 354M241 355L242 356L241 355M242 356L242 358L244 358L242 356M244 358L245 359L244 358M245 359L246 360L245 359M246 360L247 361L246 360M350 360L351 361L350 360M247 361L250 363L247 361M349 361L350 362L349 361M346 364L349 362L346 364M250 363L251 364L250 363M251 364L254 366L251 364M345 364L346 365L345 364M343.667 365.333L344.333 365.667L343.667 365.333M254 366L254 367L259 369L259 368L254 366M342 366L343 367L342 366M340.667 367.333L341.333 367.667L340.667 367.333M330 372L330 373L340 369L330 372M259.667 369.333L260.333 369.667L259.667 369.333M261 370L261 371L265 372L265 371L261 370M265.667 372.333L266.333 372.667L265.667 372.333M267 373L267 374C284.192 379.594 300.119 381.331 318 378L318 377L294 378.83L267 373M325 374L325 375L330 374L325 374M318 376L318 377L325 376L318 376z"/>
<path style="fill:#eed85f; stroke:none;" d="M104 378L105 379L104 378z"/>
</svg>
